<?xml version="1.0" encoding="UTF-8" standalone="no"?>
<!-- Created with Inkscape (http://www.inkscape.org/) -->

<svg
   width="80"
   height="80"
   viewBox="0 0 80 80.000005"
   version="1.1"
   id="svg5"
   xml:space="preserve"
   inkscape:version="1.4.2 (f4327f4, 2025-05-13)"
   sodipodi:docname="logo.svg"
   xmlns:inkscape="http://www.inkscape.org/namespaces/inkscape"
   xmlns:sodipodi="http://sodipodi.sourceforge.net/DTD/sodipodi-0.dtd"
   xmlns:xlink="http://www.w3.org/1999/xlink"
   xmlns="http://www.w3.org/2000/svg"
   xmlns:svg="http://www.w3.org/2000/svg"><sodipodi:namedview
     id="namedview7"
     pagecolor="#ffffff"
     bordercolor="#000000"
     borderopacity="0.25"
     inkscape:showpageshadow="2"
     inkscape:pageopacity="0.0"
     inkscape:pagecheckerboard="0"
     inkscape:deskcolor="#d1d1d1"
     inkscape:document-units="mm"
     showgrid="false"
     inkscape:zoom="5.5012908"
     inkscape:cx="36.355104"
     inkscape:cy="44.080564"
     inkscape:window-width="2560"
     inkscape:window-height="1369"
     inkscape:window-x="1912"
     inkscape:window-y="-8"
     inkscape:window-maximized="1"
     inkscape:current-layer="svg5"
     showguides="false" /><defs
     id="defs2"><linearGradient
       id="linearGradient1"
       inkscape:collect="always"><stop
         style="stop-color:#3b82f6;stop-opacity:1;"
         offset="0"
         id="stop1" /><stop
         style="stop-color:#2563eb;stop-opacity:1;"
         offset="1"
         id="stop2" /></linearGradient><linearGradient
       inkscape:collect="always"
       xlink:href="#linearGradient1"
       id="linearGradient2"
       x1="25"
       y1="-1.9073486e-06"
       x2="25"
       y2="50"
       gradientUnits="userSpaceOnUse"
       gradientTransform="scale(1.6)" /></defs><rect
     style="fill:url(#linearGradient2);stroke-width:1.6"
     id="rect1"
     width="80"
     height="80"
     x="0"
     y="0"
     inkscape:label="Background"
     ry="12" /><path
     style="fill:#ffffff;stroke-width:0.105289"
     d="m 27.700214,63.844245 c -0.522081,-0.202515 -1.062983,-0.772108 -1.188183,-1.251208 -0.05532,-0.211741 -0.10086,-1.442545 -0.101175,-2.735122 l -5.13e-4,-2.350134 -0.719539,-0.625808 c -0.997259,-0.867355 -2.380745,-2.446291 -3.147344,-3.59199 -1.217144,-1.819039 -1.965158,-3.52478 -2.46731,-5.626372 L 19.793148,46.479282 19.244657,46.29697 C 18.38794,46.012204 17.835291,45.66646 17.296,45.077869 c -1.740815,-1.899958 -1.726114,-4.863073 0.03326,-6.704149 0.874722,-0.915343 2.37406,-1.53012 3.381725,-1.386615 0.3774,0.05372 0.382646,0.04913 0.757331,-0.668275 1.728807,-3.310071 4.504458,-6.118264 7.956153,-8.049441 l 0.817395,-0.457322 0.0602,-1.430139 c 0.06612,-1.570884 0.25362,-2.508854 0.753849,-3.771282 1.194202,-3.013806 3.885318,-5.43122 7.018585,-6.304758 1.189071,-0.331505 3.375344,-0.407202 4.613425,-0.159734 2.971873,0.594022 5.513072,2.42477 7.049979,5.078987 l 0.593777,1.025457 2.573621,-0.626719 c 2.682638,-0.653264 3.36866,-0.73985 3.830338,-0.483446 0.413283,0.22953 0.829106,0.739799 0.943955,1.158372 0.06245,0.22747 0.09845,2.436026 0.09275,5.684789 l -0.0093,5.3128 0.507229,0.715543 c 0.764132,1.077975 1.217367,1.877806 1.823816,3.218537 l 0.549596,1.21504 0.66222,0.05649 c 1.335269,0.11394 2.349979,0.970222 2.606449,2.199502 0.0754,0.361416 0.10224,1.905669 0.0802,4.616298 l -0.03306,4.073207 -0.317197,0.594513 c -0.580504,1.088 -1.466982,1.519735 -3.136218,1.527412 l -0.83791,0.0036 -0.477015,0.843308 c -0.756573,1.3375 -1.969815,2.856951 -3.328976,4.169175 l -0.638586,0.616532 -0.0044,2.585432 c -0.0057,3.209901 -0.09249,3.549939 -1.038733,4.063342 -0.348844,0.18928 -0.642531,0.205677 -3.682173,0.205677 -3.222471,0 -3.314193,-0.006 -3.758152,-0.244388 -0.54684,-0.29368 -0.88188,-0.793725 -0.97523,-1.455525 -0.0618,-0.438108 -0.09282,-0.482835 -0.297142,-0.428323 -2.085803,0.556525 -6.640839,0.610003 -9.20866,0.10812 -0.305451,-0.05969 -0.32223,-0.04315 -0.433522,0.426672 -0.132615,0.559883 -0.508619,1.083081 -0.972319,1.352956 -0.280001,0.162962 -0.721287,0.189417 -3.538387,0.212124 -2.566444,0.02072 -3.298708,-0.005 -3.61444,-0.12765 z m 5.351403,-3.874499 c 0,-1.099492 0.02409,-1.305214 0.147015,-1.255071 2.201899,0.898242 5.208717,1.483929 7.618231,1.483929 2.056728,0 4.736924,-0.446945 6.497408,-1.083499 0.49975,-0.180698 0.966469,-0.328545 1.037153,-0.328545 0.09507,0 0.128505,0.296746 0.128505,1.1405 v 1.140495 h 2.043486 2.043484 l 0.0013,-2.362456 0.0013,-2.362464 0.830278,-0.706023 c 1.00795,-0.857105 2.093557,-2.081313 2.894974,-3.264591 0.581348,-0.858345 1.436537,-2.514183 1.665811,-3.225382 l 0.113865,-0.353012 h 1.537936 1.53793 V 45.046273 41.298928 H 59.86996 c -0.936291,0 -1.290413,-0.03646 -1.317711,-0.135781 -0.650651,-2.366975 -1.098332,-3.449466 -2.049995,-4.956934 -1.171767,-1.856123 -2.908695,-3.612911 -4.871671,-4.927377 -0.512984,-0.343505 -0.971105,-0.624557 -1.018054,-0.624557 -0.04695,0 -0.229851,0.305489 -0.406435,0.678866 -1.416696,2.995506 -4.115314,5.19716 -7.244385,5.910282 -1.360196,0.309976 -3.525426,0.260478 -4.851732,-0.110926 -2.959501,-0.828733 -5.386554,-2.851036 -6.741395,-5.617166 l -0.42137,-0.860293 -0.733738,0.480913 c -3.870628,2.536919 -6.535805,6.465943 -7.221492,10.645964 -0.201716,1.229687 -0.201197,3.455664 0.0011,4.688853 0.554479,3.380165 2.44419,6.707755 5.141645,9.05393 l 0.932828,0.811345 v 2.474376 2.47437 h 1.992399 1.992399 z M 52.545275,42.152834 c -0.511415,-0.152646 -1.263744,-0.875462 -1.413597,-1.358132 -0.421831,-1.358785 0.643456,-2.754671 2.099373,-2.750894 1.183616,0.003 2.193523,0.989557 2.196179,2.145263 6.41e-4,0.34341 -0.271186,1.001842 -0.540723,1.309024 -0.526329,0.599842 -1.558282,0.888439 -2.341232,0.654739 z M 19.925543,40.82499 c 0.08847,-0.469755 0.13968,-0.876606 0.113805,-0.904112 -0.09841,-0.104625 -0.67281,0.303269 -0.895765,0.636128 -0.337553,0.503948 -0.384198,1.431967 -0.101565,2.020897 0.11805,0.246002 0.295428,0.495591 0.394165,0.554652 0.161499,0.0966 0.187006,0.02904 0.254029,-0.673041 0.04098,-0.429231 0.14688,-1.164769 0.235346,-1.634524 z m 23.292422,-6.739549 c 2.490418,-0.900657 4.163836,-2.661042 4.974246,-5.232752 0.200541,-0.636384 0.235911,-0.966385 0.231828,-2.162998 -0.004,-1.253272 -0.03661,-1.509753 -0.287719,-2.280995 -0.390757,-1.200262 -1.049058,-2.276328 -1.933917,-3.16122 -0.889116,-0.889152 -1.643259,-1.385278 -2.723337,-1.791594 -4.364637,-1.641941 -9.151015,0.890954 -10.282924,5.441598 -0.230991,0.928657 -0.234704,2.646241 -0.0078,3.584421 0.09393,0.388314 0.362184,1.121489 0.596104,1.629283 0.34511,0.749162 0.600294,1.109344 1.353287,1.910084 0.78076,0.830267 1.081969,1.067421 1.898635,1.494859 1.495203,0.782576 2.21877,0.948676 3.933714,0.903013 1.229856,-0.03274 1.545058,-0.07953 2.247834,-0.333699 z m -3.014143,-1.299215 v -0.692139 l -0.417141,-0.0709 c -0.439777,-0.07476 -1.224829,-0.468441 -1.584906,-0.794785 -0.504059,-0.456841 -0.887735,-1.194167 -1.097723,-2.109547 -0.06396,-0.278812 -0.05031,-0.288178 0.520845,-0.357348 0.322589,-0.03906 0.777286,-0.09832 1.010438,-0.131685 0.411233,-0.05884 0.426092,-0.05013 0.496646,0.29136 0.06966,0.337197 0.797191,1.298636 0.982677,1.298636 0.04903,0 0.08916,-0.698067 0.08916,-1.55126 v -1.55127 l -0.465023,-0.145965 c -0.605553,-0.190076 -1.453284,-0.793511 -1.811429,-1.289415 -0.609757,-0.844304 -0.744487,-2.310388 -0.297849,-3.24109 0.40197,-0.837627 1.266922,-1.486226 2.293327,-1.719693 0.241197,-0.05486 0.280978,-0.11745 0.280978,-0.442009 V 19.90102 h 0.561956 0.56196 v 0.369586 c 0,0.361998 0.01425,0.374175 0.692038,0.593044 0.856252,0.276483 1.494036,0.830261 1.824138,1.583873 0.381912,0.871884 0.374523,0.882884 -0.690012,1.028016 -0.512901,0.06993 -0.938204,0.11298 -0.945111,0.09567 -0.178151,-0.446013 -0.472293,-0.915495 -0.651159,-1.039314 l -0.229894,-0.159143 v 1.470747 1.470746 l 0.648149,0.229296 c 1.007432,0.356395 1.699125,0.848796 2.0558,1.463484 0.261315,0.450334 0.315877,0.667402 0.346245,1.377548 0.05153,1.204894 -0.163943,1.825645 -0.908414,2.617069 -0.509245,0.541362 -0.684138,0.652307 -1.362991,0.86463 l -0.778789,0.243571 v 0.684265 0.684263 h -0.56196 -0.561956 z m 1.706458,-2.670645 c 0.179906,-0.116611 0.398307,-0.358398 0.48533,-0.537294 0.323979,-0.666027 0.113565,-1.472914 -0.48533,-1.861114 -0.571592,-0.370502 -0.582544,-0.34796 -0.582544,1.199203 0,1.547164 0.01095,1.569708 0.582544,1.199205 z m -1.706458,-6.467218 c 0,-0.746983 -0.04042,-1.249115 -0.10056,-1.249115 -0.05532,0 -0.245131,0.137325 -0.421827,0.305151 -0.260793,0.24772 -0.330805,0.410757 -0.371974,0.866252 -0.04777,0.528488 -0.0298,0.583354 0.30943,0.943964 0.198083,0.210575 0.410724,0.382865 0.472541,0.382865 0.07522,0 0.112395,-0.413082 0.112395,-1.249117 z m 14.6755,1.17294 c -0.02259,-0.02405 -0.85709,0.154344 -1.854403,0.396402 -0.997321,0.242059 -1.818717,0.440225 -1.825332,0.440369 -0.0066,1.7e-4 -0.009,0.516715 -0.0052,1.147933 l 0.0067,1.147671 0.759495,0.436123 c 0.894164,0.513456 2.707758,1.777609 2.82409,1.968516 0.04458,0.07317 0.09334,-1.132895 0.108375,-2.680139 0.015,-1.547243 0.0087,-2.832838 -0.0138,-2.856875 z"
     id="path3"
     inkscape:label="Foreground" /></svg>
